<svg width="90" height="90" viewBox="0 0 90 90" fill="none" xmlns="http://www.w3.org/2000/svg">
<rect width="89.4336" height="89.4336" rx="20.3258" fill="#E63A46"/>
<path d="M74.8394 32.4799C74.8394 35.7198 74.516 38.8657 73.9092 41.8684C70.5802 58.3399 58.6903 70.5222 44.5338 70.5222C30.3773 70.5222 18.3929 58.2413 15.1182 41.6735C14.535 38.7295 14.2281 35.6517 14.2281 32.4799C14.2281 32.4682 14.2281 32.4564 14.2281 32.4447C14.2281 30.0007 15.4936 27.7235 17.5547 26.4557C23.5847 22.744 33.4654 20.3258 44.6329 20.3258C55.8004 20.3258 65.3907 22.6735 71.4443 26.2937C73.5456 27.5497 74.8323 29.8505 74.8418 32.3226C74.8418 32.3766 74.8418 32.4283 74.8418 32.4823L74.8394 32.4799Z" stroke="white" stroke-width="4.06516" stroke-linecap="round" stroke-linejoin="round"/>
<path d="M68.9254 35.013C68.9254 51.6019 58.0058 65.0496 44.534 65.0496C31.0622 65.0496 20.1426 51.6019 20.1426 35.013C20.1426 34.5341 20.152 34.0598 20.1709 33.5879C20.2276 32.1136 21.2027 30.8036 22.6287 30.3974C24.4278 29.8903 27.0981 30.4796 31.0574 33.5621C33.1327 35.1797 35.2175 36.9264 37.2975 38.6308C46.2268 45.958 55.0168 52.487 62.3264 44.3639C62.4775 44.1972 62.6239 44.0305 62.7679 43.8615C66.4015 39.692 68.0589 36.1188 68.7601 33.3954C68.7861 33.1254 68.812 32.8625 68.838 32.5925C68.8758 33.2804 68.923 34.3533 68.923 35.0106L68.9254 35.013Z" fill="white"/>
<path d="M68.8446 32.5362C68.8446 32.555 68.8399 32.5761 68.8375 32.5949C68.8115 32.8626 68.7856 33.1255 68.7596 33.3978C68.056 36.1212 66.401 39.6944 62.7674 43.8639C62.6234 44.0306 62.4747 44.1973 62.3259 44.3663C55.0187 52.487 46.2287 45.9581 37.2971 38.6332C42.3732 39.9949 48.906 40.2578 56.8933 34.2242C62.5219 29.9725 65.8532 29.8152 67.6853 30.4843C68.311 30.7121 68.7455 31.2896 68.7998 31.9493C68.8163 32.1465 68.8304 32.3414 68.8446 32.5386V32.5362Z" fill="#FDEBED"/>
<path d="M44.5059 54.9522C44.199 56.4524 42.865 57.5817 41.2666 57.5817C39.4416 57.5817 37.9589 56.1097 37.9589 54.2925" stroke="#E63A46" stroke-width="2.1828" stroke-linecap="round" stroke-linejoin="round"/>
<path d="M51.1847 54.2925C51.1847 56.1073 49.7043 57.5817 47.8769 57.5817C46.2715 57.5817 44.9328 56.443 44.6329 54.9335" stroke="#E63A46" stroke-width="2.1828" stroke-linecap="round" stroke-linejoin="round"/>
</svg>
